/vscmnt/brussel_pixiu_data/_data_brussel/112/vsc11236/PredSimResults/SUBJ10opt3D/trackIG/worker_13.mot
version=1
nRows=6
nColumns=50
inDegrees=yes
endheader
                time	         pelvis_tilt	         pelvis_list	     pelvis_rotation	           pelvis_tx	           pelvis_ty	           pelvis_tz	       hip_flexion_r	     hip_adduction_r	      hip_rotation_r	        knee_angle_r	       ankle_angle_r	         mtp_angle_r	       hip_flexion_l	     hip_adduction_l	      hip_rotation_l	        knee_angle_l	       ankle_angle_l	         mtp_angle_l	    lumbar_extension	      lumbar_bending	     lumbar_rotation	 ercspn_r/activation	 intobl_r/activation	 extobl_r/activation	    abd_r/activation	    add_r/activation	hamstrings_r/activation	bifemsh_r/activation	glut_max_r/activation	iliopsoas_r/activation	rect_fem_r/activation	  vasti_r/activation	gastroc_r/activation	 soleus_r/activation	tib_ant_r/activation	 ercspn_l/activation	 intobl_l/activation	 extobl_l/activation	    abd_l/activation	    add_l/activation	hamstrings_l/activation	bifemsh_l/activation	glut_max_l/activation	iliopsoas_l/activation	rect_fem_l/activation	  vasti_l/activation	gastroc_l/activation	 soleus_l/activation	tib_ant_l/activation	
          0.00000000	        -12.28789042	         -2.31454695	         13.47455026	          0.00000000	          0.78638643	         -0.01230534	         45.00101526	         -5.18836555	         -5.05060954	         -9.79542976	         -0.18326773	          0.25549238	         -1.61993550	         -1.81831678	          9.29978309	        -28.29795708	          8.92970019	         38.64038716	         -6.90701009	         -1.01997469	         -2.22435098	          0.15044925	          0.10151072	          0.00999999	          0.00999999	          0.10431975	          0.05826381	          0.28834563	          0.08791645	          0.10645897	          0.01812537	          0.00999999	          0.06664072	          0.00999999	          0.31489636	          0.10992362	          0.00999999	          0.00999999	          0.04291302	          0.14654789	          0.06636661	          0.39399156	          0.01578648	          0.08325985	          0.01188188	          0.06475566	          0.16955558	          0.28478308	          0.01756932	
          0.01129133	        -12.17920264	         -2.30380752	         13.68195949	          0.02562166	          0.78658961	         -0.01182628	         44.97248167	         -5.11188345	         -5.65315971	        -13.06124677	         -0.36573549	          0.24916004	         -3.04743734	         -2.28341730	          8.87163574	        -28.43370432	          6.03504810	         38.94147217	         -6.58612363	         -0.69958764	         -2.34906311	          0.12822801	          0.08543315	          0.00999999	          0.00999999	          0.10638914	          0.06267802	          0.24267661	          0.18117418	          0.08959769	          0.01525462	          0.00999999	          0.05608596	          0.01188188	          0.35520421	          0.11212879	          0.00999999	          0.00999999	          0.03611633	          0.23574425	          0.05585527	          0.33159003	          0.01328617	          0.17085074	          0.00999999	          0.05449947	          0.14270087	          0.23967830	          0.01478664	
          0.02258266	        -12.06486989	         -2.26801305	         13.83089263	          0.05114921	          0.78669182	         -0.01130104	         44.87575420	         -5.04023843	         -6.09733718	        -16.30264366	         -0.66098329	          0.23307941	         -4.09192682	         -2.65998920	          8.44858691	        -29.23537859	          3.23366303	         38.42851909	         -6.30241097	         -0.38844028	         -2.43652883	          0.11750899	          0.07190200	          0.00999999	          0.05003074	          0.14161916	          0.06462799	          0.20424078	          0.25908231	          0.07540694	          0.01283855	          0.00999999	          0.04720291	          0.00999999	          0.44673699	          0.13595178	          0.00999999	          0.00999999	          0.03039612	          0.25047359	          0.04700875	          0.27907183	          0.01118187	          0.31027727	          0.00999999	          0.04586768	          0.12009949	          0.20171735	          0.01244469	
          0.03387399	        -11.94493401	         -2.21615220	         13.92731205	          0.07626467	          0.78690055	         -0.01068670	         44.83267158	         -4.94174271	         -6.36874328	        -19.60028867	         -0.80235476	          0.20280888	         -4.61217454	         -2.94257324	          8.08034416	        -30.84894402	          0.38374781	         37.21902858	         -6.09451898	         -0.08057588	         -2.48882567	          0.15768078	          0.06051395	          0.00999999	          0.10838767	          0.18817364	          0.05941278	          0.17189253	          0.38133646	          0.06346377	          0.01080514	          0.00999999	          0.03972677	          0.00999999	          0.42410164	          0.20450048	          0.05347350	          0.00999999	          0.02558189	          0.21080285	          0.03956337	          0.23487162	          0.01188188	          0.45106109	          0.00999999	          0.03860302	          0.10107778	          0.16976877	          0.01047366	
          0.04516532	        -11.81562095	         -2.16270330	         13.99690767	          0.10084354	          0.78738952	         -0.00996361	         44.86941841	         -4.77834179	         -6.37592832	        -23.05875786	         -0.45287435	          0.17030913	         -4.53113498	         -3.14598625	          7.81197312	        -33.30028378	         -2.68576148	         35.37664336	         -5.96637722	          0.22478533	         -2.51295001	          0.18534928	          0.05092957	          0.00999999	          0.16303359	          0.24299091	          0.05000281	          0.14466769	          0.44786270	          0.05341219	          0.00999999	          0.00999999	          0.03343473	          0.00999999	          0.35693118	          0.28423122	          0.08238345	          0.00999999	          0.02153016	          0.17741528	          0.03329721	          0.19767196	          0.00999999	          0.51472887	          0.00999999	          0.03248896	          0.08506879	          0.14288029	          0.00999999	
          0.05645664	        -11.67298902	         -2.11574300	         14.05116790	          0.12488620	          0.78823810	         -0.00911460	         44.94959978	         -4.51912012	         -6.10086203	        -26.65763550	          0.61732677	          0.19951764	         -3.87263616	         -3.28270397	          7.66740940	        -36.51070038	         -5.71174712	         32.41908383	         -5.90139288	          0.51730390	         -2.51130684	          0.19518356	          0.04286320	          0.00999999	          0.23190545	          0.29631074	          0.04208322	          0.12175480	          0.47621592	          0.04495261	          0.00999999	          0.00999999	          0.02813924	          0.07754430	          0.30039938	          0.37630105	          0.08478879	          0.00999999	          0.01812015	          0.14931573	          0.02802350	          0.16636410	          0.01188188	          0.49262111	          0.02368246	          0.02734327	          0.07159534	          0.12025050	          0.16087284	
